<svg width="32" height="33" viewBox="0 0 32 33" fill="none" xmlns="http://www.w3.org/2000/svg">
<path d="M16 4.5C13.6266 4.5 11.3066 5.20379 9.33316 6.52236C7.35977 7.84094 5.8217 9.71509 4.91345 11.9078C4.0052 14.1005 3.76756 16.5133 4.23058 18.8411C4.6936 21.1689 5.83649 23.3071 7.51472 24.9853C9.19295 26.6635 11.3312 27.8064 13.6589 28.2694C15.9867 28.7324 18.3995 28.4948 20.5922 27.5866C22.7849 26.6783 24.6591 25.1402 25.9776 23.1668C27.2962 21.1935 28 18.8734 28 16.5C28 13.3174 26.7357 10.2652 24.4853 8.01472C22.2348 5.76428 19.1826 4.5 16 4.5ZM15 11.5C15 11.2348 15.1054 10.9804 15.2929 10.7929C15.4804 10.6054 15.7348 10.5 16 10.5C16.2652 10.5 16.5196 10.6054 16.7071 10.7929C16.8946 10.9804 17 11.2348 17 11.5V17.5C17 17.7652 16.8946 18.0196 16.7071 18.2071C16.5196 18.3946 16.2652 18.5 16 18.5C15.7348 18.5 15.4804 18.3946 15.2929 18.2071C15.1054 18.0196 15 17.7652 15 17.5V11.5ZM16 22.5C15.8022 22.5 15.6089 22.4414 15.4444 22.3315C15.28 22.2216 15.1518 22.0654 15.0761 21.8827C15.0004 21.7 14.9806 21.4989 15.0192 21.3049C15.0578 21.1109 15.153 20.9327 15.2929 20.7929C15.4328 20.653 15.6109 20.5578 15.8049 20.5192C15.9989 20.4806 16.2 20.5004 16.3827 20.5761C16.5654 20.6518 16.7216 20.78 16.8315 20.9444C16.9414 21.1089 17 21.3022 17 21.5C17 21.7652 16.8946 22.0196 16.7071 22.2071C16.5196 22.3946 16.2652 22.5 16 22.5Z" fill="#FD3C4A"/>
</svg>
